<?xml version="1.0" encoding="utf-8"?>
<!-- Generator: Adobe Illustrator 24.1.2, SVG Export Plug-In . SVG Version: 6.00 Build 0)  -->
<svg version="1.1" id="Layer_1" xmlns="http://www.w3.org/2000/svg" xmlns:xlink="http://www.w3.org/1999/xlink" x="0px" y="0px"
	 viewBox="0 0 1920 1080" style="enable-background:new 0 0 1920 1080;" xml:space="preserve">
<style type="text/css">
	.st0{fill:#FEFEFE;}
	.st1{fill:#FAAE13;}
	.st2{fill:#FED43F;}
	.st3{fill:#F9F6EA;}
	.st4{fill:#FDD650;}
</style>
<g>
	<path class="st0" d="M1576.63,997.4c-172.05,39.85-345.64,73.88-532.66,77.84c-82.65,6.36-164.9,10.22-241.99-14.58
		c-458.56-22-654.86-108.76-727.6-312.66c-28.23-79.15,25.56-158.72-31.8-239.63c-28.46-40.15,57.5-39.4,108.31-24.53
		c136.58,39.96,166.58-7.77,168.48-70.87c2.35-79.55,17.51-155.82,130.79-209.8c66.1-31.5,141.06-55.79,181.32,17.51
		c34.79,63.37,124.59,106.47,217.7,81.33c106.45-28.73,97.95-102.72,61.26-165.24c-8.28-14.05-29.72-25.35-44.2-38.28
		c-21.04-18.81-54.61-37.57-23.43-61.62c33.25-25.67,70.98-9.44,105.41,0.96c165.94,50.07,374.73,73.61,390.92,216.61
		c1.49,13.33,34.07,37.96,40.08,36.77c153.59-30.67,230.32,61.3,355.23,73.91c111.83,11.25,213.85,25.67,94.64,106.34
		c-54.74,37.06-2.08,64.65,23.66,93.7C2007.18,739.57,1887.61,925.35,1576.63,997.4z"/>
	<path class="st1" d="M1576.63,997.4c-171.96,39.83-345.47,73.85-532.39,77.84c-0.16,0-0.31-0.06-0.37-0.15
		c-42.41-75.17,76.86-66.87,135.09-82.1c203.31-53.16,309.99-136.27,298.59-270.57c-8.87-104.7-168.62-139.56-258.39-206.67
		c-0.02-0.01-0.04-0.03-0.05-0.05c-2.98-3.05-5.91-6.05-8.84-8.97c-5.88-5.99-11.72-11.68-17.42-17.08
		c-113.28-107.43-182.45-101.79-319.31,12.88c-10.77,9.92-21.9,20.09-34.88,28.68c-4.93,3.25-10.09,6.25-15.61,8.94
		c-17.46,8.51-38.41,13.81-65.46,12.77c-99.89-3.72-155.4,26.23-196.98,68.35c-3.48,3.59-6.97,7.26-10.31,11.04
		c-2.93,3.29-5.82,6.66-8.67,10.06c-0.01,0.02-0.03,0.03-0.05,0.05c-7.46,5.61-15.64,10.81-24.31,15.76
		c-4.56,2.6-9.2,5.09-13.98,7.56c-0.03,0.01-0.05,0.03-0.07,0.05c-7.09,6.3-13.32,12.81-18.75,19.5
		c-85.6,105.51,29.81,257.03,240,304.22c69.91,15.7,163.93,7.78,202.84,58.17c-36,29.38-81.04,19.86-125.32,13
		c-0.02,0-0.04,0-0.05-0.01c-458.54-22-654.83-108.76-727.58-312.65c-28.23-79.15,80.95-182.29-31.8-239.63
		c-98.58-50.13-10.65-49.1,108.31-24.53c143.93,29.73,166.58-7.77,168.48-70.87c2.35-79.55,23.78-151.56,130.79-209.8
		c86.49-47.07,171.38-78.94,181.32,17.51c6.86,66.47,124.59,106.47,217.7,81.33c106.45-28.73,97.95-102.72,61.26-165.24
		c-8.28-14.05-29.72-25.35-44.2-38.28c-21.04-18.81-37.82-50.55-26.1-74.71c27.31-56.3,73.65,3.64,108.08,14.05
		c165.94,50.07,374.73,73.61,390.92,216.61c1.49,13.33,34.07,37.96,40.08,36.77c153.59-30.67,229.83,63.11,355.23,73.91
		c110.04,9.48,241.22-24.74,94.64,106.34c-45.87,41.02-2.08,64.65,23.66,93.7C2007.18,739.57,1887.61,925.35,1576.63,997.4z"/>
	<path class="st2" d="M1371.78,963.85c-95.37,53.63-251.27,40.31-323.29,111.39c-82.65,6.36-104.14,2.93-181.23-21.87
		c56.23-7.29-19.54,5.11-3.76-0.53c55.24-19.77,2.49-18.49-13.8-18.73c-287.1-4.18-379.52-118.02-448.51-255.93
		c-34.61-69.14-17.28-109.77,93.06-137.62c8.87,6.01,18.01,11.97,27.55,17.61c37.91,22.59,81.79,40.6,137.85,39.85
		C840.52,695.6,908.06,750,903.76,848.41c-1,22.35,5.79,46.56,58.95,71.7c13.17-97.4-53.56-214.22,183.31-235.82
		c-5.52-38.92-53.79-38.18-86.55-47.28c-107.76-29.98-122.87-85.99-78.22-136.24c59.08-66.43,139.75-27.64,216.11-11.12
		c14.52,3.14,28.91,5.48,42.93,6.15c126.81,30.65,200.78,99.13,296.19,150.26C1615.62,688.44,1468.32,909.55,1371.78,963.85z"/>
	<path class="st3" d="M1235.79,495.81c-37.46,16.08-75.45,35.55-125.24,19.92c-39.52-12.4-87.43-60.39-102.24,5.6
		c-7.87,35.08-47.16,91.73,75.82,96.23c72.84,2.67,170.38-2.61,171.94,52.19c1.57,55.19-104.14,43.97-169.54,57.1
		c-131.58,26.42-65.24,89.55-62.36,137.49c2.52,41.97,40.89,97.97-51.66,108.23c-110.21,12.23-123.75-53.9-118.76-96.16
		c12.69-107.43-25.92-170.26-245.17-148.3c-100.83,10.1-144.19-28.24-118.83-87.56c10.74-2.14,20.82-5.06,30.24-8.75
		c114.3-37.44,304.35-13.39,317.62-132.84c28.33-69.91,89.65-118.5,226.39-116.03C1188.62,385.17,1231.36,430.87,1235.79,495.81z"/>
	<path class="st4" d="M837.6,498.95c5.37,138.32,5.37,138.32-317.61,132.84c15.67-77.8,80.36-122.11,223.45-102.28
		C799.14,537.22,806.66,509.13,837.6,498.95z"/>
</g>
</svg>
