<?xml version="1.0" encoding="utf-8"?>
<!-- Generator: Adobe Illustrator 24.1.2, SVG Export Plug-In . SVG Version: 6.00 Build 0)  -->
<svg version="1.1" id="Layer_1" xmlns="http://www.w3.org/2000/svg" xmlns:xlink="http://www.w3.org/1999/xlink" x="0px" y="0px"
	 viewBox="0 0 1920 1080" style="enable-background:new 0 0 1920 1080;" xml:space="preserve">
<style type="text/css">
	.st0{fill:#FAAE14;}
	.st1{fill:#F9AE16;}
	.st2{fill:#FDD13D;}
	.st3{fill:#F8AE16;}
	.st4{fill:#FDD441;}
	.st5{fill:#F9B11A;}
	.st6{fill:#FDD23D;}
	.st7{fill:#F9D144;}
	.st8{fill:#FDD23E;}
	.st9{fill:#F9D043;}
	.st10{fill:#F7AF19;}
	.st11{fill:#CEBD9A;}
</style>
<g>
	<path class="st0" d="M572.59,635.04c-8.32-21.28-39.11-37.6-62.42-37.13c-167.28,3.31-121.23-92-114.3-183.52
		c42.42,54.12,45.78,141.14,145.9,80.5c0.93-2.79,1.92-5.57,3.07-8.3v-74.33c-3.03-8.13-5.09-16.53-6.23-25.07
		c-10.73-19.73-15.83-33.27-17.05-41.91c-2.03-4.89-3.66-9.9-4.99-14.99c-3.45-5.24-6.58-10.64-9.16-16.26
		c-1.55-2.05-3.12-4.09-4.52-6.23c-114.49-61.25-207.36-46.24-255.44,70.41c-17.48,42.1-25.8,85.61-19.7,128.89
		c9.16,64.09-15.81,93.89-95.43,81.83c-13.59-2.13-27.74-0.95-41.61,0.24c-49.38,3.78-90.16,20.57-90.72,66.93
		c-0.55,45.64,36.9,66.45,87.94,68.82c44.94,2.13,89.88,2.13,134.82,3.07c19.14,8.75,14.34,24.43,13.87,37.84
		c-3.86,109.82,32,96.57,94.6,72.84c18.65-7.07,41.06,0.71,59.65-8.75c-1.11-61.02-9.71-125.58,105.7-105.71
		c28.3,4.97,51.6-12.06,62.97-36.18c-2.44,1.07,7.84-1.31,13.04-29.33C570.93,652.78,575.37,640.25,572.59,635.04z"/>
	<path class="st0" d="M566.27,368.28c1.67-26.01,3.05-43.04,3.33-60.07c1.39-43.75,24.41-74.73,79.06-75.2
		c61.31-0.47,82.67,34.29,82.67,81.12c-0.28,194.87-0.55,389.98-0.83,585.09c-18.59,4.26-32.73-8.04-48.55-9.22
		c-94.04-6.38-109.02-52.5-106.25-122.98c1.94-54.87,0.56-110.68-10.54-165.31c8.42-25.2-0.98-61.25-0.98-75.52L566.27,368.28z"/>
	<path class="st0" d="M1211.79,674.52c2.81,27.09,3.71,54.27-0.26,81.25c-4.62,31.42-8.5,66.99-9.29,92.12
		c0,94.6-144.26,21.99-229.7,24.12c-2.5-1.89-4.44-4.02-6.38-6.15c0.56,0,69.08-17.74,69.63-17.97c0.01-94.54,12.19-155.66,0-236.49
		c-110.97-70.95-167.33,140.09-113.74,236.26c1.11,1.66,2.22,3.07,3.33,4.49c-45.22,20.57-94.32,32.64-142.31,47.06
		c-43.55-109.5-35.51-217.81,15.81-323.76c40.5-83.25,101.26-109.02,204.73-91.05c9.99,1.89,20.25,11.59,28.02,9.93
		c47.44-10.41,95.16-47.06,141.21-1.66c41.33,40.68,24.41,94.36,37.17,141.66C1213.6,647.77,1210.43,661.39,1211.79,674.52z"/>
	<path class="st1" d="M1469,551.45c-0.69-97.62,16.26-110.75,127.34-87.11c29.23,6.22,44.64-6.31,65.8-13.79
		c97.93-34.58,203.98,2.77,246.44,84.56c19.19,36.98,16.25,69.34-24.66,91.82c-35.68,19.61-78.96,18.06-102.07-11.95
		c-59.53-77.3-85.61-25.15-106.95,18.86c-38.33,79.02-37.85,164.4-46.12,248.08c-135.06,18.79-151.23,6.82-153.28-104.36
		C1474.11,702.19,1484.12,626.54,1469,551.45z"/>
	<path class="st2" d="M967.88,865.66c82.19-27.4,152.1-21.09,234.36,5.88c-2.75,3.46,0,0,0,47.3c-4.04,14.84,9.86,21.33,27.74,23.65
		c0,0,16.4,11.42,15.83,20.25c-1.48,22.73-18.69,42.53-43.91,50.01c-36.14,10.72-72.3,21.8-107.98-9.41
		c-19.92-17.43-34.74-4.73-53.37,3.04c-137.86,57.53-210.6,26.89-257.47-107.16c20.84-65.95,84.74-49.61,139.03-51.63
		C929.02,866.68,944.08,873.29,967.88,865.66z"/>
	<path class="st3" d="M1256.88,465.4c0.01-1.48,0.55-2.98,1.54-4.2c22.8-28.16,51.85-44.58,94.18-30.01
		c41.33,14.19,51.88,42.81,51.6,77.81c-0.54,116.85-7.77,244.3,0,350.54c4.5,61.58-3.78,6.84-8.35,6.94
		c-53.91,1.15-90.85,36.56-137.85,51.42l-3.05-0.24L1256.88,465.4z"/>
	<path class="st4" d="M1526,375.25c-16.38,24.7-30.61,60.02-73.7,42c-49.64-20.76-6.63-49.43,1.64-73.97
		c29-86.08-58.16-119.58-113.54-156.48c-57.24-38.13-97.65,9.88-127.7,51.87c-29.84,41.71-65,78.55-40.41,135.4
		c12.64,29.21,1.83,71.25-59,36.58c-68.39-105.51,14.21-189.13,64.89-272.54c26.32-43.33,104.18-35.45,157.67-52.61
		c73.64-23.64,90.36,35.38,128.87,71.73C1535.37,223.92,1565.89,290.39,1526,375.25z"/>
	<path class="st5" d="M1526,375.25c5.82-81-9.53-155.23-82.99-215.7c-25.12-20.67-30.44-72.43-74.58-59.6
		c-64.58,18.77-155.27,4.76-188.86,67.01c-38.08,70.56-108.03,142.36-44.66,227.74c-12,8.92-9.55,7.1-21.55,16.02
		c-77.27-51.19-79.59-143.1-2.51-194.96c26.39-17.75,11.19-35.86,10.51-54.76c-3.21-89.06,23.21-100.58,120.71-77.54
		c90.57,21.4,38.56-53.6,64.64-83.46c78.66,19,141.22,51.68,164.25,124.41c5.16,16.29,10.77,38.24,25,45.82
		C1606.74,229.24,1569.85,301.46,1526,375.25z"/>
	<path class="st6" d="M734.4,899.11c-24.05-18.72-34.88-58.28-76.97-49.5c-92.1,19.22-57.17-44.52-67.1-82.73
		c-1.17-4.49-1.93-9.03-2.89-13.55c-4.66,0.61-9.47,1.04-14.43,1.28c-0.86,7.28-1.64,14.51-1.32,21.44
		c3.58,77.74-0.67,155.78,4.67,233.39c2.78,40.47,30.38,71.8,86.29,68.87c54.5-2.86,77.4-31.49,75.93-75.68
		C737.4,968.12,735.8,933.62,734.4,899.11z"/>
	<path class="st7" d="M1266.74,901.35c19.18-33.27,43.88-55.39,80.61-53.27c40.24,2.32,76.81,23.46,71.43,67.49
		c-1.07,8.78,0.23,17.72,0.42,26.56c1.07,49.16,8.92,103.15-62.56,123.46c-45.2,12.84-68.88-9.06-91.07-32.91
		c-15.63-16.8-19.23-38.85-12.93-59.61c4.09-13.5,5.99-27.49,5.51-41.67C1257.72,918.84,1261.36,910.69,1266.74,901.35z"/>
	<path class="st8" d="M1469,551.45c35.41,69.31,17.36,142.39,14.96,213c-2.36,69.42,11.74,111.91,107.26,104.39
		c11.93-0.94,25.01,8.47,37.55,13.08c1.16,11.46,2.9,22.91,3.39,34.39c2.24,51.73-0.5,106.38-82.33,105.1
		c-79.11-1.23-83.74-54.95-83.2-106.98C1467.89,793.44,1468.27,672.44,1469,551.45z"/>
	<path class="st9" d="M236.42,762.57c29.93,54,20.89,32.91,146.19,67.26c1.95,20.25,4.63,40.47,5.7,60.75
		c2.5,47.42-7.9,93.71-75.9,94.7c-65.86,0.96-82.08-46.41-87.25-91.72c-5.81-50.96,4.41-87.32,5.93-130.02
		C231.18,761.01,235.15,760.28,236.42,762.57z"/>
	<path class="st10" d="M1316.11,252.25c59.15,2.8,88.13,34.06,84.68,85.64c-3.61,53.86-45.25,76.03-104.93,75.12
		c-60.59-0.92-85.81-30.2-82.21-79.81C1217.39,281.59,1245.81,251.71,1316.11,252.25z"/>
	<path class="st11" d="M1256.89,463.11c-0.55,151.59-1.11,303.19-1.94,454.54L1256.89,463.11z"/>
</g>
</svg>
