<?xml version="1.0" encoding="utf-8"?>
<!-- Generator: Adobe Illustrator 24.1.2, SVG Export Plug-In . SVG Version: 6.00 Build 0)  -->
<svg version="1.1" id="Layer_1" xmlns="http://www.w3.org/2000/svg" xmlns:xlink="http://www.w3.org/1999/xlink" x="0px" y="0px"
	 viewBox="0 0 1920 1080" style="enable-background:new 0 0 1920 1080;" xml:space="preserve">
<style type="text/css">
	.st0{fill:#FED43F;}
	.st1{fill:#FAAE13;}
	.st2{fill:#FAAF14;}
	.st3{fill:#FAAE14;}
	.st4{fill:#FAAF15;}
	.st5{fill:#FED33F;}
	.st6{fill:#FBCC3B;}
	.st7{fill:#F8B421;}
	.st8{fill:#FCD03E;}
	.st9{fill:#FCCF3C;}
	.st10{fill:#F9B31C;}
	.st11{fill:#F8B323;}
	.st12{fill:#F4B22A;}
	.st13{fill:#F8B422;}
	.st14{fill:#DBD5CA;}
	.st15{fill:#D7CBAF;}
</style>
<g>
	<path class="st0" d="M807.58,378.45c13.06-7.39,26.12-14.79,39.18-22.18c28.64-18.79,52.75-44.76,79.04-67.25
		c23.38-20,48.41-28.26,76.84-25.69c48.73,4.4,94.79,20.97,137.75,46.47c26.3,15.61,47.07,40.47,60.44,72.69
		c19.44,46.83,47.73,76.43,97.48,71.08c43.11-4.63,84.09,0.38,117.78,41.36c18.68,22.72,47.57,14.25,72.26,8.21
		c36.52-8.94,69.64-29.8,105.27-42.23c18.21-6.35,36.35-9,55.03-7.26c34.12,3.18,52.06,21.97,54.88,61.54
		c1.68,23.56,9.81,40.43,25.61,54.35c14.51,12.78,34.4,24.2,29.89,49.8c-4.88,27.67-28.54,31.84-47.62,40.37
		c-2.98,1.33-6.49,0.88-9.77,1.02c-11.22,0.51-21.72-1.51-30.1-11.25c28.26-35.61,21.81-28.97-7.64-67.21
		c-46.88-60.89-93.15-67.79-156.07-38.38c-43.56,20.36-90.24,6.3-130.43-26.05c-25.48-20.51-55.74-19.88-84.93-22.74
		c-28.27-2.76-56.57-2.45-84.86-8.07c-40.08-7.96-68.06-35.52-95.48-66.75c-40.74-46.41-89.04-64.39-146.15-49.45
		c-71.17,18.62-138.04,54.66-211.86,63.63c-64.59,7.84-128.16,4.25-186.56-25.01C501.6,376.42,446.82,399.6,403,448.88
		c-59.47,66.88-125.03,104.33-207.75,108.09c-16.04,0.73-55-4.01-39.54,45.04c1.47,4.67-7.96,13.94-12.33,21.07
		c-24.89,9.82-55.74,1.16-70.82-19.88c-16.94-23.62-8.68-58.07,17.09-71.3c37.82-19.42,78.35-22.31,118.59-22.54
		c54.66-0.31,91.06-27.39,109.93-87.07c29.2-92.35,113.92-124.72,191.96-98.63c32.32,10.8,62.78,28.24,94.66,40.88
		c10.03,1.4,18.63,6.17,25.69,14.58c21.61,24.97,49.37,19.01,75.54,19.37C740.81,398.96,775.47,396.88,807.58,378.45z"/>
	<path class="st1" d="M518.92,639.83c-0.11,0.75-0.21,1.48-0.31,2.21c-0.35,2.41-0.69,4.74-1.03,6.97
		c-4.89,32.15-9.41,46.57-23.14,53.44c-8.73,4.37-21.18,5.68-39.82,6.56c-4.99,0.24-9.81,1.29-14.59,2.45
		c-4.66-1.29-9.36-2.81-14.07-4.45c-22.6,0.44-35.35-13.14-42.5-37.23c-2.82-9.51-4.77-26.71-16.89-22.5
		c-8.67,3-16.72,15.66-17.43,28.86c-1.02,18.86,0.36,37.95-1.23,56.72c-1.87,22.02,5.95,27.91,24.06,27.72
		c34.8-0.37,69.71-2.23,104.36,5.89c26.41,6.19,41.28,20.64,36.93,53.9c-16.74,26.37-42.35,27.04-66.61,28.73
		c-24.67,1.71-49.53-0.68-74.3-0.29c-9.86,0.16-23-3.57-23.76,15.9c8.64,16.33,7.06,33.54,3.28,50.93
		c-9.66,13.19-22.04,6.62-33.12,5.05c-31.27-4.46-62.14,6.53-93.33,2.26c-9.06-6.23-10.45-16.13-9.67-27.07
		c-0.3-46.68-25.5-49.08-57.42-46.9c-34.74,2.36-69.96,3.23-104.52-4.81c-11.61-2.7-23.09-6.7-34.22-11.37
		c-11.14-4.68-17.28-14.73-17.65-28.71c-0.38-14.41,6.27-22.67,17.32-28.57c18.14-9.68,36.86-15,56.81-14.96
		c30.59,0.07,61.34-2.24,91.73,0.59c31.84,2.96,46.39-6.87,41.65-47.2c-5.91-50.21,8.09-93.15,43.32-125.4
		c17.23-15.78,36.2-28.53,57.91-31.81c63-9.52,123.96-2.35,179.81,36.29c10.05,6.95,21.22,13.62,22.51,29.79V623
		C516.32,628.04,518.52,633.43,518.92,639.83z"/>
	<path class="st1" d="M1082.39,939.31c-65.93,1.07-132.03-3.47-197.72,6.81c-1.85-1.92-3.38-3.82-4.64-5.71
		c0.05-0.2-0.02-0.48,0.15-0.59c28.43-17.4,86.65,18.95,88.82-16.82c4-66,0.56-56.68,0-69c-0.74-16.26-9.65-47.82-6.82-63.85
		c0.46-2.6-2-5.73-2.18-8.15c-1-13-46.94-10.75-96,1c-17.16,4.11-20,9-31,22c-57.94,68.48-19.2,84.56,15.25,122.33
		c0.48,1.86,1.01,3.57,1.6,5.14c-0.17,0.31-0.35,0.61-0.54,0.92c-8.18,8.75-18.12,6.87-27.55,5.48
		c-39.29-5.77-78.23,4.14-117.4,2.98c-10.72-29-17.84-58.72-13.47-90.72c9.21-11.05,2.08-28.47,11.5-39.43
		c26.69-66.48,77.47-97.41,122.69-119.78c11.28-5.58,16.57-2.97,22.61-3.79c76.66-10.45,142.74-4.07,188.31-7.13
		c40.73-2.74,55.66,37.05,62.34,78.21c8.71,14.23,4.08,30.8,6.04,46.21c4.75,19.72,8.65,39.58,7.3,60.29
		c6.01,10.01,5.16,21.5,5.26,32.76C1117.27,936.64,1114.32,938.78,1082.39,939.31z"/>
	<path class="st2" d="M1701.63,660.74c9.24-6.5,18.24-13.51,27.76-19.4c32.01-19.81,33.31-33.52,2.13-57.41
		c-23.11-17.71-39.54-35.68-37.09-72.2c2.15-32.04-18.16-45.49-43.77-48.53c-44.41-5.28-82.45,19-121.81,36.09
		c-21.62,9.39-43.41,16.76-66.19,18.73c-24.07,2.08-47.46,0.52-64.1-25.5c-14.04-21.96-35.52-27.54-57.67-29.11
		c-13.06-0.93-26.44-2.01-39.29,0.1c-58.59,9.62-89.53-26.82-112.05-83.47c-21.37-53.74-67.77-71.28-111.3-89.51
		c-23.17-9.7-48.76-11.67-73.23-17.27c-54.72-12.53-84.08,38.35-122.5,66.12c-11.38,8.23-19.36,23.66-35.77,16.89
		c2.72-7.12,5.44-14.25,8.17-21.37c8.34-15.65,8.78-31.29-0.08-46.9c-7.36-34.65-34.15-45.23-56.56-61.44
		c-12.71-9.19-38.92-16.04-49.29-30.56c10.79-12.65,32.62-4.75,45.79-1.29c51.14,13.45,101.34,18.37,152.73,17.76
		c74.51-0.88,147.92,10.18,219.69,34.53c23.2,7.87,43.86,21.99,63.57,36.59c36.13,26.75,41.37,69.21,12.93,108.42
		c-19.78,27.27-7.12,36.17,13.45,38.27c31.47,3.21,63.33,3.45,94.92,2.02c15.05-0.68,36.41-8.12,36.52-26.73
		c0.34-59.08,27.39-21.57,56.69-18.71c9.4,0.92,18.96,7.25,21.06,20.78c7.29,18.84,8.57,37.56-0.89,56.05
		c2.2,12.11-13.02,13.07-11.6,28.01c29.35,7.47,55.43-3.13,80.99-19.71c66.02-42.81,135.25-60.47,209.58-33.09
		c8.9,3.28,20.89,4.87,22.91,17.42c2.58,16.04-12.01,14.96-19.6,19.89c-40.92,26.57-42.26,47.19-3.27,75.34
		c22.66,16.36,46.13,31.14,63.09,55.95c8.1,15.26,8.03,30.54,0.06,45.84c-13.07,26.55-32.3,33.97-57.06,24.86
		C1734.3,672.2,1717.95,666.55,1701.63,660.74z"/>
	<path class="st3" d="M1341.35,736.55c-3.16-44.81,10.97-64.52,49.61-67.71c11.94-0.98,26.2-4.26,35.66,1.59
		c38.27,23.65,73.18,4.37,110.07-4.59c68.25-16.58,132.12-0.43,188.46,47.87c10,8.57,21.92,19.74,19.03,39
		c-3.13,20.91-17.35,28.8-31.76,32.91c-37.28,10.64-73.31,8.84-105.18-20.98c-26.15-24.47-52.38-17.13-74.62,12.75
		c-29.17,39.18-37.51,85.31-42.01,133.89c-8.83,9.79-1.73,29.83-17.06,35.5c-40.8-5.02-82.26,5.95-122.76-6.76
		c-8.31-51.86-1.51-104.2-3.81-156.25C1346.29,767.88,1350.07,751.19,1341.35,736.55z"/>
	<path class="st4" d="M537.91,554.11c41.56-37.25,107.64-33.33,132.93,7.88c7.08,11.07,5.76,24.01,5.78,36.51
		c0.12,102.23,0.25,204.45-0.03,306.68c-0.12,42.12-4.62,46.86-40.24,39.19c-23.97-5.16-47.63-4.99-71.65-2.27
		c-18.63,2.11-32.24-3.81-32.43-30.02c-0.83-113.45-6.39-226.89,0.37-340.33C533.02,565.28,534.87,559.48,537.91,554.11z"/>
	<path class="st2" d="M604.79,364.54c-35.09,7.32-62.99-17.77-93.44-29.49c-72.47-27.88-161.84,4.84-183.76,92.26
		c-11.03,44-37.71,72.94-77.51,81.13c-33.08,6.8-66.53,12.48-100.02,14.89c-23.67,1.7-44.23,13.24-65.54,21.53
		c-19.21,7.47-18.33,44.98,0.26,58.22c17.79,12.67,36.62,22.96,58.6,19.99c-2.35,5.55-3.46,12.89-7.24,16.35
		C109.21,664.12,8.96,622.6,1.78,583.78c-4.37-23.63-1.63-44.69,19-58.37c20.51-13.6,38.99-28.65,45.35-58.56
		c4.82-22.65,21.67-11.38,32.04-7.26c27.57,10.96,53.46,29.1,81.56,36.39c33.75,8.76,70.88,18.77,96.98-23.1
		c12.11-19.05-0.7-44.11,11.4-63.17c5.53-45.39,32.52-78.38,61.36-99.45C415.14,262.27,494.15,236.6,572,269
		c-7,16-5.76,43.22,5.16,60.01C580.32,347.14,596.99,351.22,604.79,364.54z"/>
	<path class="st0" d="M704.36,941.85c43.03-22.06,87.6-17.64,132.4-10.62c3.61,0.57,7.65-2.51,11.49-3.89
		c5,0.36,9.05,1.24,12.85,2.52c11.11,3.75,23.07,3.88,34.34,0.65c59.8-17.13,123.25,0.16,183.28-1.44
		c30.08-0.81,34.9-8.14,31.67-37.13c-0.95-8.56,0.78-17.51,1.28-26.26c8.33,42.31,4.08,53.87,2.41,79.88
		c-0.82,12.73-2.71,25.34-4.95,37.9c-1.84,10.28,7.86,16.58,12.84,26.9c-42.86,40.93-83.71,41.43-137.64,1.69
		c-5.37-14.85-12.42-4.55-18.03-0.95c-69.94,44.79-139.12,42.33-207.77-3.67c-11.2-7.26-17.05-22.26-29.69-27.49
		C713.75,973.21,710.53,956.26,704.36,941.85z"/>
	<path class="st1" d="M1147.11,873.69c-0.46-51.55,0.24-103.17-1.85-154.64c-1.11-27.46,10.67-41.38,29.55-51.5
		c41.42-22.22,92.43-11.65,112.22,21.61c4.64,7.8,9.63,14.95,6.41,23.4c-15.19,39.87-5.17,81.76-8.38,122.54
		c10.02,26.39,4.04,54.09,4.68,81.19c0.48,20.25-11.7,24.97-26.26,23.36c-29.21-3.25-58.12,0.43-87.05,4.01
		c-5.84-0.2-11.4-1.65-16.43-5.21C1144.01,920.01,1159.53,893.13,1147.11,873.69z"/>
	<path class="st0" d="M682.52,1013.4c0.28,28.94-11.73,44.14-31.78,54.42c-8.87,4.56-18.67,7.4-28.31,9.12
		c-62.32,11.1-95.59-22.75-96.77-98.29c-0.84-53.08-1.3-106.18-1.92-159.27c0.44-33.48,0.2-66.96,1.09-100.42
		c0.15-5.55,1.46-12.56,3.09-19.4c-0.29,0.14-0.6,0.29-0.92,0.44c0.92-12.52,3.16-6.29,2.58-10.66c0.3,0.13,0.59,0.26,0.88,0.4
		c-2.09-0.32-1.47-0.57-0.46-1.74c-3.23,4.82-1.71,3.87,0,0c-1.88,6.08,1.48-3.36-0.81-3.81c-0.06-0.38-0.12-0.77-0.19-1.19
		c-0.59-3.52,0.6-33.72-1.4-41.51c-0.18-0.68-0.38-1.18-0.6-1.49c0.13-4.89-1.14-2.12-1-7l1-5c-0.3-0.65-2.28-5.21-2-6
		c3.43-9.71-6.36-7.2-0.47-31.69c2.36-9.81-2.07-23.49,12.38-37.2c0.38,115.14,1.21,230.28,0.79,345.42
		c-0.1,27.7,3.61,39.8,31.52,30.04c23.96-8.37,50-4.81,74.19,4.88c20.06,8.04,26.29,1.75,26.05-23.29
		c-1.05-110.08-0.54-220.18-0.52-330.27c0-6.31,0.58-12.61,0.9-18.9v-0.01c15.71,4.56,11.13,19.51,11.18,31.11
		C681.55,732.53,681.17,872.98,682.52,1013.4z"/>
	<path class="st0" d="M1162.99,934.33c32-7.39,64.27-12.02,96.6-4.6c16.85,3.87,14.76-8.47,15.03-19.54
		c0.61-25.04,0.98-50.09,1.45-75.12c18.38,9.54,9.17,28.69,10.07,43.22c1.78,28.76,0.58,57.76,0.61,86.66
		c-9.27,25.08-7.45,50.37-1.06,75.75c-44.33,39.03-86.67,39.01-133.33-0.08c6.91-17.01,2.87-34.52,2.27-52.03
		C1153.97,970.02,1150.86,950.45,1162.99,934.33z"/>
	<path class="st2" d="M1202.1,647.07c-19.63-0.45-39.22-1.23-56.86-13.18c-28.42-19.25-30.41-41.1-6.15-67.53
		c28.5-31.05,114.65-31.69,143.49-1.05c17.27,18.34,15.1,49.16-5.16,62.08C1254.11,642.25,1228.55,647.4,1202.1,647.07z"/>
	<path class="st0" d="M1354.58,941.8c41.15-13.4,82.31-10,123.47-0.09c11.06,20.56,9.17,41.3,0.62,62.12
		c-10.97,30.95-41.86,46.35-83.04,39.28c-16.92-2.9-38.24-0.18-42.47-29.1C1345.6,989.73,1341.64,965.55,1354.58,941.8z"/>
	<path class="st5" d="M223.83,919.14c41.16-9.47,82.33-17.97,123.65-1.04c8.56,4.9,6.23,17.65,12.89,23.92c0,2.56,0,5.11,0,7.67
		c-9.4,13.56-1.22,33.32-12.23,46.31c-32.3,36.75-100.86,29.66-125.66-12.99C215.17,961.5,212.08,940.11,223.83,919.14z"/>
	<path class="st6" d="M1848.55,456.76c-11.43-1.99-23.07,3.1-28.34-9.81c-5.74-14.05,9.13-17.43,11.81-25.24
		c14.13-41.07,38.03-49.51,71.02-34.38c8.88,4.07,16.95,9.66,16.95,24.2c0,13.43-4.86,20.51-14.8,25.52
		C1886.3,446.58,1866.87,453.57,1848.55,456.76z"/>
	<path class="st7" d="M7.24,402.38c-6.13-30.73,15.89-32.47,31.1-36.15c17.33-4.18,36.27-5.13,48.9,16.3
		c12.29,20.85,1.51,45.58-6.15,55.03c-15.79,19.48-35.26,1.37-51.46-11.06c5.58-15.02,34.81-9.94,27.29-27.73
		c-8.84-20.9-25.11,1.49-38.04,5.96C14.57,406.23,10.65,406.28,7.24,402.38z"/>
	<path class="st8" d="M684.29,106.4c3.02-10.77,9.78-14.76,19.12-14.07c5.02,2.53,10.35,2.17,15.66,2.43
		c31.28,1.55,33.26,4.86,25.64,42.31c-14.61,15.6-31.85,22.24-49.89,11.62C680.3,140.15,680.16,123.1,684.29,106.4z"/>
	<path class="st9" d="M7.24,402.38c10.98-7.35,21.31-17.9,33.13-21.1c10.64-2.88,27.6-10.23,31.13,13.35
		c2.95,19.68-8.5,26.61-22.44,29.76c-6.35,1.43-12.94,1.45-19.42,2.11C18.05,423.58,8.08,418.65,7.24,402.38z"/>
	<path class="st10" d="M807.58,378.45c3.24,1.74,11.09,3.53,6.72,7.77c-23.37,22.61-166.81,22.36-189.84,0.82
		c-0.65-0.61-1.36-2.53-1.3-2.58c2.39-1.87,4.87-3.6,7.33-5.35C689.59,405.81,748.58,391.4,807.58,378.45z"/>
	<path class="st11" d="M684.29,106.4c5.03,48.13,31.41,40.21,58.69,29.88c3.49-4.33,6.94-3.81,10.38,0.09
		c-27.54,41.19-47.72,43.67-70.88,8.72c-6.81-13.22-7.69-26.23,1.05-38.89L684.29,106.4z"/>
	<path class="st12" d="M741.98,32.78c15.48-16.52,24.36-40.63,47.95-30.29c8.24,3.61,8.83,16.19,4.12,22.56
		C780.81,42.96,763.97,45.56,741.98,32.78z"/>
	<path class="st13" d="M753.36,136.37c-3.46-0.03-6.93-0.06-10.39-0.09c8.7-41-21.38-35.32-39.57-43.95
		c13.65-4.24,27.55-5.98,41.46-2.88c10.28,2.3,21.59,4.06,24.77,19.08C773.04,124.65,762.39,129.91,753.36,136.37z"/>
	<path class="st14" d="M565.72,272.84c12.03,14.14-0.35,37.61,11.44,56.17"/>
	<path class="st15" d="M1807.63,653.33c-0.02-15.28-0.04-30.56-0.06-45.84"/>
</g>
</svg>
